{
    "asset" : {
        "generator" : "Khronos glTF Blender I/O v1.5.17",
        "version" : "2.0"
    },
    "scene" : 0,
    "scenes" : [
        {
            "name" : "Scene",
            "nodes" : [
                0
            ]
        }
    ],
    "nodes" : [
        {
            "mesh" : 0,
            "name" : "Key_01",
            "rotation" : [
                0.7003954648971558,
                0.0971919447183609,
                -0.0971919596195221,
                0.7003953456878662
            ],
            "scale" : [
                0.050000011920928955,
                0.050000011920928955,
                0.050000011920928955
            ]
        }
    ],
    "materials" : [
        {
            "doubleSided" : true,
            "name" : "Metal",
            "pbrMetallicRoughness" : {}
        }
    ],
    "meshes" : [
        {
            "name" : "polySurface1",
            "primitives" : [
                {
                    "attributes" : {
                        "POSITION" : 0,
                        "NORMAL" : 1,
                        "TEXCOORD_0" : 2
                    },
                    "indices" : 3,
                    "material" : 0
                }
            ]
        }
    ],
    "accessors" : [
        {
            "bufferView" : 0,
            "componentType" : 5126,
            "count" : 1738,
            "max" : [
                1.297326922416687,
                0.20250588655471802,
                2.5179519653320312
            ],
            "min" : [
                -1.2589895725250244,
                -0.2111610770225525,
                -3.685385227203369
            ],
            "type" : "VEC3"
        },
        {
            "bufferView" : 1,
            "componentType" : 5126,
            "count" : 1738,
            "type" : "VEC3"
        },
        {
            "bufferView" : 2,
            "componentType" : 5126,
            "count" : 1738,
            "type" : "VEC2"
        },
        {
            "bufferView" : 3,
            "componentType" : 5123,
            "count" : 6318,
            "type" : "SCALAR"
        }
    ],
    "bufferViews" : [
        {
            "buffer" : 0,
            "byteLength" : 20856,
            "byteOffset" : 0
        },
        {
            "buffer" : 0,
            "byteLength" : 20856,
            "byteOffset" : 20856
        },
        {
            "buffer" : 0,
            "byteLength" : 13904,
            "byteOffset" : 41712
        },
        {
            "buffer" : 0,
            "byteLength" : 12636,
            "byteOffset" : 55616
        }
    ],
    "buffers" : [
        {
            "byteLength" : 68252,
            "uri" : "data:application/octet-stream;base64,"
        }
    ]
}
