{
    "asset" : {
        "generator" : "Khronos glTF Blender I/O v1.5.17",
        "version" : "2.0"
    },
    "scene" : 0,
    "scenes" : [
        {
            "name" : "Scene",
            "nodes" : [
                0,
                1,
                2
            ]
        }
    ],
    "nodes" : [
        {
            "name" : "Light",
            "rotation" : [
                0.36714163422584534,
                0.6287184953689575,
                -0.465853750705719,
                0.5028919577598572
            ],
            "translation" : [
                4.076245307922363,
                5.903861999511719,
                -1.0054539442062378
            ]
        },
        {
            "name" : "Camera",
            "rotation" : [
                0.5985915064811707,
                0.07435837388038635,
                -0.063618004322052,
                0.79505455493927
            ],
            "translation" : [
                0.9515169858932495,
                1.3199810981750488,
                4.630101680755615
            ]
        },
        {
            "mesh" : 0,
            "name" : "Sphere"
        }
    ],
    "animations" : [
        {
            "channels" : [
                {
                    "sampler" : 0,
                    "target" : {
                        "node" : 0,
                        "path" : "translation"
                    }
                },
                {
                    "sampler" : 1,
                    "target" : {
                        "node" : 0,
                        "path" : "rotation"
                    }
                },
                {
                    "sampler" : 2,
                    "target" : {
                        "node" : 0,
                        "path" : "scale"
                    }
                }
            ],
            "name" : "LightAction",
            "samplers" : [
                {
                    "input" : 4,
                    "interpolation" : "LINEAR",
                    "output" : 5
                },
                {
                    "input" : 4,
                    "interpolation" : "LINEAR",
                    "output" : 6
                },
                {
                    "input" : 4,
                    "interpolation" : "LINEAR",
                    "output" : 7
                }
            ]
        }
    ],
    "materials" : [
        {
            "doubleSided" : true,
            "name" : "Material.001",
            "pbrMetallicRoughness" : {
                "baseColorTexture" : {
                    "index" : 0
                },
                "metallicFactor" : 0,
                "roughnessFactor" : 0.7363636493682861
            }
        }
    ],
    "meshes" : [
        {
            "name" : "Sphere",
            "primitives" : [
                {
                    "attributes" : {
                        "POSITION" : 0,
                        "NORMAL" : 1,
                        "TEXCOORD_0" : 2
                    },
                    "indices" : 3,
                    "material" : 0
                }
            ]
        }
    ],
    "textures" : [
        {
            "sampler" : 0,
            "source" : 0
        }
    ],
    "images" : [
        {
            "mimeType" : "image/webp",
            "name" : "moon",
            "uri" : "../../../Assets/Images/Moon/moon.webp"
        }
    ],
    "accessors" : [
        {
            "bufferView" : 0,
            "componentType" : 5126,
            "count" : 8767,
            "max" : [
                0.9967930316925049,
                0.9996724724769592,
                0.9967935085296631
            ],
            "min" : [
                -0.9967925548553467,
                -0.9996724724769592,
                -0.9967923164367676
            ],
            "type" : "VEC3"
        },
        {
            "bufferView" : 1,
            "componentType" : 5126,
            "count" : 8767,
            "type" : "VEC3"
        },
        {
            "bufferView" : 2,
            "componentType" : 5126,
            "count" : 8767,
            "type" : "VEC2"
        },
        {
            "bufferView" : 3,
            "componentType" : 5123,
            "count" : 48384,
            "type" : "SCALAR"
        },
        {
            "bufferView" : 4,
            "componentType" : 5126,
            "count" : 9993,
            "max" : [
                333.1
            ],
            "min" : [
                0.03333333333333333
            ],
            "type" : "SCALAR"
        },
        {
            "bufferView" : 5,
            "componentType" : 5126,
            "count" : 9993,
            "type" : "VEC3"
        },
        {
            "bufferView" : 6,
            "componentType" : 5126,
            "count" : 9993,
            "type" : "VEC4"
        },
        {
            "bufferView" : 7,
            "componentType" : 5126,
            "count" : 9993,
            "type" : "VEC3"
        }
    ],
    "bufferViews" : [
        {
            "buffer" : 0,
            "byteLength" : 105204,
            "byteOffset" : 0
        },
        {
            "buffer" : 0,
            "byteLength" : 105204,
            "byteOffset" : 105204
        },
        {
            "buffer" : 0,
            "byteLength" : 70136,
            "byteOffset" : 210408
        },
        {
            "buffer" : 0,
            "byteLength" : 96768,
            "byteOffset" : 280544
        },
        {
            "buffer" : 0,
            "byteLength" : 39972,
            "byteOffset" : 377312
        },
        {
            "buffer" : 0,
            "byteLength" : 119916,
            "byteOffset" : 417284
        },
        {
            "buffer" : 0,
            "byteLength" : 159888,
            "byteOffset" : 537200
        },
        {
            "buffer" : 0,
            "byteLength" : 119916,
            "byteOffset" : 697088
        }
    ],
    "samplers" : [
        {
            "magFilter" : 9729,
            "minFilter" : 9987
        }
    ],
    "buffers" : [
        {
            "byteLength" : 817004,
            "uri" : "moon.bin"
        }
    ]
}
